<!-- svg exported from google slides -->
<svg version="1.1" width="240" height="240" viewBox="30 0.0 270 240.0" fill="none" stroke="none" stroke-linecap="square" stroke-miterlimit="10"
    xmlns:xlink="http://www.w3.org/1999/xlink"
    xmlns="http://www.w3.org/2000/svg">
    <clipPath id="g92663cb679_0_0.0">
        <path d="m0 0l334.07874 0l0 240.0l-334.07874 0l0 -240.0z" clip-rule="nonzero"/>
    </clipPath>
    <g clip-path="url(#g92663cb679_0_0.0)">
        <path fill="#000000" fill-opacity="0.0" d="m0 0l334.07874 0l0 240.0l-334.07874 0z" fill-rule="evenodd"/>
        <path fill="#505050" d="m55.68504 120.0l0 0c0 -61.4993 49.85503 -111.35433 111.354324 -111.35433l0 0c29.533005 0 57.856415 11.73194 78.73941 32.61493c20.882996 20.882988 32.61493 49.206398 32.61493 78.7394l0 0c0 61.4993 -49.85504 111.354324 -111.35434 111.354324l0 0c-61.4993 0 -111.354324 -49.855026 -111.354324 -111.354324z" fill-rule="evenodd"/>
        <path fill="#000000" fill-opacity="0.0" d="m145.79527 49.85302l42.48819 0l0 50.992126l-42.48819 0z" fill-rule="evenodd"/>
        <path fill="#ffffff" d="m157.92218 87.06908l0 -22.90625l3.109375 0l12.03125 17.984375l0 -17.984375l2.90625 0l0 22.90625l-3.109375 0l-12.03125 -18.0l0 18.0l-2.90625 0z" fill-rule="nonzero"/>
        <path fill="#f83c40" d="m119.37512 19.3625l0 0c28.981125 -13.726128 62.472855 -14.292061 91.90117 -1.5529194l-4.2573547 9.834806l0 0c-26.596146 -11.513126 -56.864624 -11.001659 -83.0566 1.4034653z" fill-rule="evenodd"/>
        <path fill="#3bf7de" d="m251.72002 47.68834l0 0c11.051895 12.942352 18.990158 28.245789 23.20494 44.73472l-17.164612 4.3874893l0 0c-3.5442047 -13.86554 -10.219467 -26.7342 -19.513031 -37.61742z" fill-rule="evenodd"/>
        <path fill="#3182de" d="m231.86671 7.771623l0 0c6.2643585 3.6185298 12.214752 7.7552 17.788818 12.366665l-39.08571 47.244576c-2.9369812 -2.429779 -6.072235 -4.609394 -9.372925 -6.515999z" fill-rule="evenodd"/>
    </g>
</svg>